{"title":"Hercules (2014) TS [RUS]","uid":10722942,"size":727838766,"categoryP":"video","categoryS":"movies","magnet":"?xt=urn:btih:1fb9fa6e81e25ea3e7a367bcffe8c20c69aaeb09&amp;dn=Hercules+%282014%29+TS+%5BRUS%5D&amp;tr=udp%3A%2F%2Ftracker.openbittorrent.com%3A80&amp;tr=udp%3A%2F%2Fopen.demonii.com%3A1337&amp;tr=udp%3A%2F%2Ftracker.coppersurfer.tk%3A6969&amp;tr=udp%3A%2F%2Fexodus.desync.com%3A6969","seeders":1,"leechers":0,"uploader":"yfjfrj","files":1,"time":1407510839,"description":"Having endured his legendary twelve labors, Hercules, the Greek demigod, has his life as a sword-for-hire tested when the King of Thrace and his daughter seek his aid in defeating a tyrannical warlord.\n\n\n\nMI:\nGeneral\nComplete name                            : D:moviesGerakl.D.2014.TS.700MB.avi\nFormat                                   : AVI\nFormat/Info                              : Audio Video Interleave\nFile size                                : 694 MiB\nDuration                                 : 1h 26mn\nOverall bit rate                         : 1 120 Kbps\nMovie name                               : Gerakl.D.2014.TS.ELEKTRI4KA\nDirector                                 : ELEKTRI4KA\nWriting application                      : VirtualDubMod 1.5.10.3 | www.virtualdub-fr.org || (build 2550/release)\nWriting library                          : VirtualDub build 35491/release\nOriginal source form/Name                : Movie\nCopyright                                : uniongang.tv\n\nVideo\nID                                       : 0\nFormat                                   : MPEG-4 Visual\nFormat profile                           : Advanced Simple@L5\nFormat settings, BVOP                    : 2\nFormat settings, QPel                    : No\nFormat settings, GMC                     : No warppoints\nFormat settings, Matrix                  : Default (H.263)\nMuxing mode                              : Packed bitstream\nCodec ID                                 : XVID\nCodec ID/Hint                            : XviD\nDuration                                 : 1h 26mn\nBit rate                                 : 980 Kbps\nWidth                                    : 640 pixels\nHeight                                   : 272 pixels\nDisplay aspect ratio                     : 2.35:1\nFrame rate                               : 29.970 fps\nColor space                              : YUV\nChroma subsampling                       : 4:2:0\nBit depth                                : 8 bits\nScan type                                : Progressive\nCompression mode                         : Lossy\nBits/(Pixel*Frame)                       : 0.188\nStream size                              : 607 MiB (88%)\nWriting library                          : XviD 64\n\nAudio\nID                                       : 1\nFormat                                   : MPEG Audio\nFormat version                           : Version 1\nFormat profile                           : Layer 3\nMode                                     : Joint stereo\nCodec ID                                 : 55\nCodec ID/Hint                            : MP3\nDuration                                 : 1h 26mn\nBit rate mode                            : Constant\nBit rate                                 : 128 Kbps\nChannel(s)                               : 2 channels\nSampling rate                            : 48.0 KHz\nCompression mode                         : Lossy\nStream size                              : 79.4 MiB (11%)\nAlignment                                : Split accross interleaves\nInterleave, duration                     : 33 ms (1.00 video frame)\nInterleave, preload duration             : 500 ms\n\nscreens: &lt;a href=&quot;\nhttp://i4.imageban.ru/out/2014/08/08/42da1cae70cc2e7b63d998d5de3dfcea.png&quot; rel=&quot;nofollow&quot; target=&quot;_NEW&quot;&gt;\nhttp://i4.imageban.ru/out/2014/08/08/42da1cae70cc2e7b63d998d5de3dfcea.png&lt;/a&gt; &lt;a href=&quot;\nhttp://i5.imageban.ru/out/2014/08/08/17efa4e1d1ed284c12f18c345bc4a6ce.png&quot; rel=&quot;nofollow&quot; target=&quot;_NEW&quot;&gt;\nhttp://i5.imageban.ru/out/2014/08/08/17efa4e1d1ed284c12f18c345bc4a6ce.png&lt;/a&gt; &lt;a href=&quot;\nhttp://i1.imageban.ru/out/2014/08/08/8b98fa87eb170fe1fac1cf7d1dcea2e5.png&quot; rel=&quot;nofollow&quot; target=&quot;_NEW&quot;&gt;\nhttp://i1.imageban.ru/out/2014/08/08/8b98fa87eb170fe1fac1cf7d1dcea2e5.png&lt;/a&gt; &lt;a href=&quot;\nhttp://i6.imageban.ru/out/2014/08/08/3bf8ae0cbe0c4dbd6fbb0f662b748749.png&quot; rel=&quot;nofollow&quot; target=&quot;_NEW&quot;&gt;\nhttp://i6.imageban.ru/out/2014/08/08/3bf8ae0cbe0c4dbd6fbb0f662b748749.png&lt;/a&gt; &lt;a href=&quot;\nhttp://i5.imageban.ru/out/2014/08/08/74d6b91a4623c07e5e412261ee50e9f2.png&quot; rel=&quot;nofollow&quot; target=&quot;_NEW&quot;&gt;\nhttp://i5.imageban.ru/out/2014/08/08/74d6b91a4623c07e5e412261ee50e9f2.png&lt;/a&gt; &lt;a href=&quot;\nhttp://i6.imageban.ru/out/2014/08/08/d9d1401a930ce6a76797a2518e8768a5.png&quot; rel=&quot;nofollow&quot; target=&quot;_NEW&quot;&gt;\nhttp://i6.imageban.ru/out/2014/08/08/d9d1401a930ce6a76797a2518e8768a5.png&lt;/a&gt; &lt;a href=&quot;\nhttp://i1.imageban.ru/out/2014/08/08/5b483e612f0b19d4a3de09994c613b42.png&quot; rel=&quot;nofollow&quot; target=&quot;_NEW&quot;&gt;\nhttp://i1.imageban.ru/out/2014/08/08/5b483e612f0b19d4a3de09994c613b42.png&lt;/a&gt; &lt;a href=&quot;\nhttp://i5.imageban.ru/out/2014/08/08/b1c48bbe4a4dd164b941c4391f4982e3.png&quot; rel=&quot;nofollow&quot; target=&quot;_NEW&quot;&gt;\nhttp://i5.imageban.ru/out/2014/08/08/b1c48bbe4a4dd164b941c4391f4982e3.png&lt;/a&gt; &lt;a href=&quot;\nhttp://i1.imageban.ru/out/2014/08/08/7b24f0afc56e2166edbf5e523b9a213d.png&quot; rel=&quot;nofollow&quot; target=&quot;_NEW&quot;&gt;\nhttp://i1.imageban.ru/out/2014/08/08/7b24f0afc56e2166edbf5e523b9a213d.png&lt;/a&gt; &lt;a href=&quot;\nhttp://i5.imageban.ru/out/2014/08/08/c121c2f523934afb473ad0b54bf16fcd.png&quot; rel=&quot;nofollow&quot; target=&quot;_NEW&quot;&gt;\nhttp://i5.imageban.ru/out/2014/08/08/c121c2f523934afb473ad0b54bf16fcd.png&lt;/a&gt; &lt;a href=&quot;\nhttp://i6.imageban.ru/out/2014/08/08/8c685b74d02a19f9d49f52510feef4bd.png&quot; rel=&quot;nofollow&quot; target=&quot;_NEW&quot;&gt;\nhttp://i6.imageban.ru/out/2014/08/08/8c685b74d02a19f9d49f52510feef4bd.png&lt;/a&gt; &lt;a href=&quot;\nhttp://i5.imageban.ru/out/2014/08/08/899fa0fdfb4233ab7c55b2c9d60753b4.png&quot; rel=&quot;nofollow&quot; target=&quot;_NEW&quot;&gt;\nhttp://i5.imageban.ru/out/2014/08/08/899fa0fdfb4233ab7c55b2c9d60753b4.png&lt;/a&gt;","torrent":{"xt":"urn:btih:1fb9fa6e81e25ea3e7a367bcffe8c20c69aaeb09","amp;dn":"Hercules+%282014%29+TS+%5BRUS%5D","amp;tr":["udp%3A%2F%2Ftracker.openbittorrent.com%3A80","udp%3A%2F%2Fopen.demonii.com%3A1337","udp%3A%2F%2Ftracker.coppersurfer.tk%3A6969","udp%3A%2F%2Fexodus.desync.com%3A6969"],"infoHash":"1fb9fa6e81e25ea3e7a367bcffe8c20c69aaeb09","infoHashBuffer":{"type":"Buffer","data":[31,185,250,110,129,226,94,163,231,163,103,188,255,232,194,12,105,170,235,9]},"announce":[],"urlList":[]}}